name C:\Users\r0593348\3dpredictsim\Results\Batchsim_tmt_linear\Pog_s1_tmt_aCst_d00_k250_ig24.mot
datacolumns 128
datarows 4
range 0.00000000 0.03323908
endheader
time	pelvis_tilt	pelvis_list	pelvis_rotation	pelvis_tx	pelvis_ty	pelvis_tz	hip_flexion_l	hip_adduction_l	hip_rotation_l	hip_flexion_r	hip_adduction_r	hip_rotation_r	knee_angle_l	knee_angle_r	ankle_angle_l	ankle_angle_r	subtalar_angle_l	subtalar_angle_r	tmt_angle_l	tmt_angle_r	mtp_angle_l	mtp_angle_r	lumbar_extension	lumbar_bending	lumbar_rotation	arm_flex_l	arm_add_l	arm_rot_l	arm_flex_r	arm_add_r	arm_rot_r	elbow_flex_l	elbow_flex_r	pro_sup_l	pro_sup_r	glut_med1_l/activation	glut_med2_l/activation	glut_med3_l/activation	glut_min1_l/activation	glut_min2_l/activation	glut_min3_l/activation	semimem_l/activation	semiten_l/activation	bifemlh_l/activation	bifemsh_l/activation	sar_l/activation	add_long_l/activation	add_brev_l/activation	add_mag1_l/activation	add_mag2_l/activation	add_mag3_l/activation	tfl_l/activation	pect_l/activation	grac_l/activation	glut_max1_l/activation	glut_max2_l/activation	glut_max3_l/activation	iliacus_l/activation	psoas_l/activation	quad_fem_l/activation	gem_l/activation	peri_l/activation	rect_fem_l/activation	vas_med_l/activation	vas_int_l/activation	vas_lat_l/activation	med_gas_l/activation	lat_gas_l/activation	soleus_l/activation	tib_post_l/activation	flex_dig_l/activation	flex_hal_l/activation	tib_ant_l/activation	per_brev_l/activation	per_long_l/activation	per_tert_l/activation	ext_dig_l/activation	ext_hal_l/activation	ercspn_l/activation	intobl_l/activation	extobl_l/activation	glut_med1_r/activation	glut_med2_r/activation	glut_med3_r/activation	glut_min1_r/activation	glut_min2_r/activation	glut_min3_r/activation	semimem_r/activation	semiten_r/activation	bifemlh_r/activation	bifemsh_r/activation	sar_r/activation	add_long_r/activation	add_brev_r/activation	add_mag1_r/activation	add_mag2_r/activation	add_mag3_r/activation	tfl_r/activation	pect_r/activation	grac_r/activation	glut_max1_r/activation	glut_max2_r/activation	glut_max3_r/activation	iliacus_r/activation	psoas_r/activation	quad_fem_r/activation	gem_r/activation	peri_r/activation	rect_fem_r/activation	vas_med_r/activation	vas_int_r/activation	vas_lat_r/activation	med_gas_r/activation	lat_gas_r/activation	soleus_r/activation	tib_post_r/activation	flex_dig_r/activation	flex_hal_r/activation	tib_ant_r/activation	per_brev_r/activation	per_long_r/activation	per_tert_r/activation	ext_dig_r/activation	ext_hal_r/activation	ercspn_r/activation	intobl_r/activation	extobl_r/activation	
          0.00000000	         -2.92571326	         -2.21577874	          6.39199357	          0.00000000	          0.85742456	         -0.00314143	        -17.31138906	         -1.85447262	          9.14069180	         31.92308540	          3.24725422	         -1.64611450	        -10.69178612	        -15.80583652	         -1.73150633	          6.31593340	         13.59230931	         -2.36609462	          3.77778310	          0.12929024	         20.97102793	         -0.07000562	         -2.08549661	          0.96454711	         -1.86815132	          6.44577952	        -13.47478081	         16.12051411	        -11.30307824	        -13.71606870	          5.84409109	         42.68715277	         17.32497234	         86.51662706	         86.51662706	          0.27714516	          0.10149169	          0.05000006	          0.29227148	          0.21430720	          0.10730439	          0.05000121	          0.05000012	          0.05000010	          0.06356568	          0.09732044	          0.10132468	          0.22146760	          0.05160299	          0.05000173	          0.05000041	          0.27989888	          0.05923507	          0.05000094	          0.05000039	          0.05000026	          0.05000024	          0.30822229	          0.48319264	          0.05000005	          0.05000028	          0.05000626	          0.18471691	          0.05000108	          0.05000110	          0.13092363	          0.25797355	          0.34347499	          0.24167416	          0.21061062	          0.25501869	          0.30009099	          0.05000000	          0.07778796	          0.15131706	          0.05000004	          0.05000000	          0.05000004	          0.05101283	          0.05659969	          0.07256298	          0.05923306	          0.05923306	          0.05000005	          0.05923309	          0.05923308	          0.05923281	          0.07921222	          0.05923326	          0.18919358	          0.05923268	          0.05000019	          0.19396558	          0.34153830	          0.09008128	          0.23242769	          0.10221882	          0.05000007	          0.09748956	          0.16565183	          0.05000015	          0.05000016	          0.05850411	          0.07227278	          0.07048504	          0.58374114	          0.36369615	          0.14546218	          0.05000027	          0.13980527	          0.16151734	          0.12482040	          0.07640820	          0.07182450	          0.06941128	          0.07017113	          0.05000034	          0.05000087	          0.52337377	          0.34144250	          0.19689076	          0.27397401	          0.58812344	          0.34632358	          0.05823263	          0.08405309	          0.08312908	
          0.01107969	         -2.91497398	         -2.34853300	          6.61985944	          0.01705293	          0.85628192	         -0.00290624	        -16.85457649	         -2.13630354	          8.85140824	         31.21170364	          3.75905855	         -1.37360908	        -13.21158059	        -16.14697588	         -2.78912995	          5.57991239	         14.67104037	         -2.86143049	          3.52739289	          0.00825555	         22.07034556	         -0.08602227	         -1.87510151	          1.23361041	         -1.95351903	          6.12799031	        -13.50099826	         16.32237814	        -12.37545003	        -13.70801900	          5.74217427	         43.83196040	         17.22085155	         86.51662706	         86.51662706	          0.23394461	          0.08567148	          0.05923308	          0.24671309	          0.18090166	          0.09057812	          0.06453202	          0.05000011	          0.05000028	          0.05365726	          0.08215046	          0.20815786	          0.33673196	          0.30502890	          0.08732251	          0.13225581	          0.23626912	          0.05000182	          0.05000040	          0.05923350	          0.05923352	          0.05923356	          0.26017753	          0.43150658	          0.05923311	          0.05923320	          0.05148537	          0.15592379	          0.11666509	          0.11666522	          0.11051581	          0.21776139	          0.28993513	          0.20400271	          0.17778127	          0.21526719	          0.25331373	          0.08930807	          0.06566262	          0.12773022	          0.05000004	          0.05000030	          0.05000019	          0.08264341	          0.07017125	          0.06125209	          0.05000000	          0.05000001	          0.09691226	          0.05000002	          0.05000002	          0.05000002	          0.06686487	          0.05000019	          0.15970266	          0.05000002	          0.05000092	          0.16373086	          0.35192495	          0.42270656	          0.29049103	          0.11276003	          0.05000014	          0.08313136	          0.16377069	          0.05388592	          0.10815076	          0.13850756	          0.06100714	          0.05949813	          0.68906639	          0.30700429	          0.12278799	          0.06219468	          0.24078305	          0.26025380	          0.20796765	          0.06964731	          0.06364926	          0.05939404	          0.05923307	          0.07017122	          0.07017091	          0.59139727	          0.44099819	          0.24516813	          0.32681464	          0.57068393	          0.29233972	          0.05000000	          0.07095114	          0.07017117	
          0.02215939	         -2.89844659	         -2.48180276	          6.81367343	          0.03432220	          0.85493800	         -0.00269665	        -16.30338985	         -2.39117770	          8.54316130	         30.24142099	          4.15260154	         -1.06555065	        -15.89688376	        -16.41163108	         -3.85393554	          5.14479530	         15.63651470	         -3.37617785	          3.06712226	         -0.09928364	         22.88514463	         -0.19033169	         -1.64822015	          1.50436509	         -2.02818680	          5.73145787	        -13.53066928	         16.44707376	        -13.40544150	        -13.70942652	          5.73731861	         44.95160032	         17.05003445	         86.51662706	         86.51662706	          0.34592895	          0.07231727	          0.05000001	          0.38434580	          0.15270331	          0.07645910	          0.09056049	          0.05000005	          0.05000003	          0.05000006	          0.07979337	          0.17571089	          0.28424327	          0.25748192	          0.07371103	          0.11164021	          0.19944065	          0.11684565	          0.05000014	          0.05000056	          0.05000047	          0.05000046	          0.21962188	          0.39000342	          0.05000004	          0.05000017	          0.05000002	          0.13161885	          0.09847969	          0.09847979	          0.09328893	          0.18381739	          0.24474090	          0.17220337	          0.15006926	          0.18171203	          0.21382796	          0.19900969	          0.14028229	          0.15849534	          0.32915289	          0.21741714	          0.15379807	          0.09458683	          0.05923316	          0.05170430	          0.32537738	          0.34214034	          0.36956752	          0.45359777	          0.32946619	          0.26924103	          0.09500882	          0.11934744	          0.14089016	          0.08312916	          0.05000326	          0.13820899	          0.29706794	          0.35681634	          0.24521024	          0.12798606	          0.05000012	          0.07017337	          0.13824273	          0.18039020	          0.15664227	          0.11691749	          0.05149767	          0.05022377	          0.58165677	          0.25914941	          0.29174158	          0.05249997	          0.20325053	          0.21968626	          0.17555029	          0.05879090	          0.05372782	          0.05013588	          0.05000000	          0.05923318	          0.05923294	          0.63514598	          0.43982721	          0.20695213	          0.61281056	          0.66827629	          0.36086364	          0.06965270	          0.09032396	          0.05923310	
          0.03323908	         -2.87856209	         -2.60342958	          6.96667207	          0.05152783	          0.85344391	         -0.00245749	        -15.63362436	         -2.61144051	          8.22571249	         29.17924359	          4.51241363	         -0.76160810	        -18.74889320	        -16.59507731	         -4.67778667	          4.90080835	         16.47617645	         -3.93564029	          2.26124235	         -0.04936532	         22.97166937	         -0.18902933	         -1.43266211	          1.76267493	         -2.09121025	          5.31192477	        -13.57213638	         16.53110617	        -14.33368240	        -13.71334589	          5.82953329	         46.00440839	         16.78525058	         86.51662706	         86.51662706	          0.29200659	          0.06104471	          0.05000053	          0.32443514	          0.12890041	          0.06454095	          0.12091078	          0.05923306	          0.05923319	          0.05000389	          0.06735552	          0.17228567	          0.24172983	          0.26133070	          0.06222824	          0.11665936	          0.16835251	          0.09863228	          0.05923335	          0.05000272	          0.05000146	          0.05000091	          0.18538788	          0.32921088	          0.05453191	          0.05000887	          0.05000076	          0.11110250	          0.08312897	          0.08312906	          0.07874734	          0.15516448	          0.20659142	          0.14536082	          0.12667693	          0.15338736	          0.18049713	          0.24136825	          0.14503652	          0.13378968	          0.27784569	          0.25766259	          0.16645539	          0.12443570	          0.05000008	          0.05000001	          0.46521092	          0.51798953	          0.55832955	          0.40056864	          0.38180080	          0.49988040	          0.08019928	          0.11343738	          0.11892864	          0.07017126	          0.05000022	          0.11666540	          0.25076189	          0.30119692	          0.22475758	          0.17451789	          0.05000010	          0.05923519	          0.11669396	          0.29791444	          0.21956907	          0.16652457	          0.05000006	          0.05000005	          0.49098984	          0.21875400	          0.29177947	          0.05000001	          0.26577122	          0.29774955	          0.22967284	          0.05000000	          0.05000001	          0.05000000	          0.05000000	          0.05000016	          0.05000006	          0.76840947	          0.37126826	          0.17469305	          0.62899644	          0.65730691	          0.50655209	          0.09702443	          0.07624453	          0.05000004	
